PathFileType	3	(X/Y/Z)	D:\minhoCalibration\240510\subject5_KPNP\preferred\preferred04.trc
DataRate	CameraRate	NumFrames	NumMarkers	Units	OrigDataRate	OrigDataStartFrame	OrigNumFrames
200.0	200.0	27	10	mm	200.0	300	201	
Frame#	Time	Left_Ankle_Outer1			Left_Ankle_Inner1			Left_Knee_Outer1			Left_Knee_Inner1			Left_Wrist1			Right_Wrist1			Right_Knee_Inner1			Right_Knee_Outer1			Right_Ankle_Inner1			Right_Ankle_Outer1			
		X1	Y1	Z1	X2	Y2	Z2	X3	Y3	Z3	X4	Y4	Z4	X5	Y5	Z5	X6	Y6	Z6	X7	Y7	Z7	X8	Y8	Z8	X9	Y9	Z9	X10	Y10	Z10	
300	1.49	-622.67847	74.568039	-533.30426	-650.96924	84.764252	-489.25656	-481.48044	530.35693	-510.14929	-547.15637	517.69116	-440.81198	-435.33755	1009.7634	-590.23828	-712.50842	1126.3728	-456.47174	-654.78931	694.47687	-135.77132	-725.96606	745.48279	-124.92625	-739.2937	285.74582	13.705068	-831.69226	307.48373	-0.10229474
301	1.495	-622.69775	74.441727	-533.4115	-651.17395	84.659653	-489.39175	-482.00519	530.1676	-510.59979	-548.30396	518.02191	-440.75134	-434.40259	1010.3217	-588.73627	-713.70813	1124.6661	-456.70129	-659.1665	685.86475	-143.23752	-730.88397	736.69147	-132.24666	-745.8667	273.76505	-4.0396123	-838.25726	296.21976	-19.279194
302	1.5	-622.70367	74.331886	-533.49994	-651.13202	84.656067	-489.35864	-482.22217	530.27118	-510.9892	-547.89221	518.69141	-440.85959	-433.56253	1010.8282	-587.12354	-714.28894	1122.505	-457.03925	-663.55035	677.44861	-150.9371	-735.37756	727.65723	-140.09477	-751.76752	262.62131	-22.502247	-844.0423	285.23804	-37.811325
303	1.505	-622.64655	74.341995	-533.62439	-651.24994	84.516991	-489.6077	-482.70404	530.22906	-511.2117	-548.71198	518.14575	-443.02563	-432.61533	1011.4318	-585.57019	-715.20569	1120.538	-457.36948	-667.77448	669.03583	-158.95584	-740.17352	718.9137	-147.91214	-757.8042	251.48839	-41.138309	-851.59509	274.59012	-61.257149
304	1.51	-622.59955	74.281975	-533.77264	-651.39545	84.418953	-489.88138	-482.87521	530.30139	-511.48624	-549.48096	518.9198	-442.03702	-431.72235	1011.8767	-583.84985	-716.35223	1118.7491	-457.66855	-671.99396	660.86761	-167.42955	-744.50574	710.03827	-156.46123	-764.25934	240.69167	-59.128651	-856.20844	263.88629	-77.888062
305	1.515	-622.67926	74.250107	-533.90393	-651.34119	84.360008	-489.98923	-483.23212	530.32532	-511.63251	-550.35461	518.97278	-442.74539	-430.92056	1012.309	-582.06909	-717.18488	1116.5751	-458.20532	-676.37927	652.82904	-175.892	-749.01471	701.82635	-164.87602	-769.30664	230.59453	-78.526657	-861.69196	253.9893	-97.438721
306	1.52	-622.65332	74.269318	-534.00452	-650.78674	84.390961	-489.75235	-483.50143	530.37506	-511.74081	-551.28363	519.02008	-443.39963	-430.09189	1012.7422	-580.24554	-718.26831	1114.6438	-458.67169	-680.22144	645.15918	-184.43604	-753.37531	693.50757	-174.01282	-774.91821	220.6183	-97.183846	-867.55945	245.00818	-118.63471
307	1.525	-622.59088	74.124809	-534.05945	-650.487	84.02829	-490.47137	-483.83017	530.34808	-511.77316	-552.24054	519.15173	-443.8942	-429.22644	1013.198	-578.36481	-719.36884	1112.5737	-459.16949	-684.2652	637.81085	-193.28249	-757.4718	685.55072	-183.02982	-779.87671	211.14102	-116.3222	-872.25732	236.12914	-138.48978
308	1.53	-622.51886	74.035896	-534.2735	-650.60748	84.272858	-490.10986	-484.09909	530.41754	-511.76028	-553.34393	518.61761	-446.3508	-428.4884	1013.6854	-576.3371	-720.60791	1110.4877	-459.91028	-687.86505	630.57056	-202.1888	-761.60144	678.38293	-191.93233	-784.33563	201.91766	-135.89877	-876.508	227.48212	-158.72069
309	1.535	-622.48724	73.835693	-534.30029	-649.63794	83.99498	-491.63956	-484.57617	530.34729	-511.60806	-554.41138	519.38837	-444.7691	-427.84125	1014.15	-574.19617	-721.71326	1108.3442	-460.65057	-691.45081	623.61652	-211.34334	-765.54413	670.8371	-201.21106	-788.66058	193.64796	-154.92276	-880.33344	219.26218	-178.81552
310	1.54	-622.42932	73.741554	-534.39667	-650.15875	84.052689	-491.11966	-484.97742	530.34735	-511.41058	-555.55634	519.53448	-445.08914	-427.1026	1014.6333	-572.04285	-723.2016	1106.2207	-461.4068	-695.01562	616.87555	-220.17477	-769.31415	663.91992	-210.5052	-792.41473	185.82195	-174.29436	-884.18347	212.29875	-200.47707
311	1.545	-622.39349	73.630951	-534.50525	-650.61823	84.143616	-490.57208	-485.32803	530.31165	-511.16718	-556.74854	518.67621	-448.31519	-426.3363	1015.2649	-569.84583	-724.51245	1103.9785	-462.52521	-698.05121	610.69952	-230.09821	-772.67548	657.00665	-220.24908	-795.40625	178.48936	-193.88991	-887.20227	205.17932	-221.14897
312	1.55	-622.23755	73.573181	-534.64069	-650.46454	83.78624	-489.99139	-485.6987	530.31079	-510.84161	-557.89618	518.59393	-448.94409	-425.62512	1015.9269	-567.67041	-725.64825	1101.7871	-463.5799	-701.44	604.56708	-238.45877	-776.17255	650.58051	-229.65149	-798.83002	171.39172	-213.48178	-889.37482	197.84703	-241.12764
313	1.555	-622.12836	73.399704	-534.78363	-650.03265	86.058899	-485.86798	-486.17917	530.24164	-510.52087	-559.13367	518.61163	-449.58911	-425.38199	1016.4789	-565.38458	-727.41156	1099.6201	-464.89999	-704.09772	598.62567	-246.75671	-779.58807	644.74603	-239.12447	-800.97528	165.17641	-233.01817	-891.40338	191.58241	-262.23505
314	1.56	-621.90619	73.420685	-534.97089	-650.2774	83.586624	-490.89108	-486.52927	530.29138	-510.14209	-560.34955	518.61871	-450.12354	-424.70456	1017.3062	-563.10468	-728.85516	1097.4592	-466.32352	-706.85699	593.33124	-254.37233	-783.12897	638.96771	-248.97121	-803.38513	158.71703	-252.48456	-893.03064	185.769	-283.31943
315	1.565	-621.8244	73.365105	-535.07019	-649.7688	85.876282	-486.71127	-487.125	530.2738	-509.58109	-561.53113	518.68976	-450.82495	-424.43463	1018.0861	-560.80304	-730.5799	1095.3979	-467.86972	-710.52747	588.26385	-264.52664	-786.73108	633.30713	-258.6626	-805.2312	153.10947	-271.80966	-893.00885	179.38179	-302.29898
316	1.57	-621.60358	73.403648	-535.3443	-649.90228	83.865074	-490.89246	-487.45328	530.30084	-509.12286	-562.58081	518.72949	-451.4429	-424.18439	1018.8889	-558.55231	-732.21112	1093.3958	-469.51627	-713.66309	583.40149	-273.26028	-790.1535	628.04993	-268.41452	-806.57098	147.84581	-291.03192	-893.35956	174.30757	-322.9129
317	1.575	-621.4173	73.38855	-535.59546	-649.60907	85.848633	-487.31143	-487.55539	530.41815	-508.81714	-563.61224	518.74628	-451.62076	-424.77066	1019.5142	-556.06281	-734.09882	1091.5336	-471.25037	-716.33795	578.79559	-280.90076	-793.5329	623.0119	-278.10196	-807.72668	142.80057	-310.62253	-893.22858	169.58376	-343.60974
318	1.58	-621.27478	73.348778	-535.74481	-650.04285	83.958641	-491.68707	-487.89453	530.40857	-508.33362	-564.68567	518.4563	-452.18994	-424.76697	1020.4121	-553.88507	-735.85675	1089.5962	-472.97507	-719.9903	574.27289	-290.73718	-796.89093	618.2453	-287.86786	-808.27948	138.50349	-329.58719	-893.04401	165.47955	-364.40341
319	1.585	-621.07916	73.416237	-535.94525	-650.11395	84.029541	-492.04544	-487.79709	530.62	-508.09866	-565.74078	518.45258	-453.35968	-424.92972	1021.2245	-551.63147	-737.40997	1087.7183	-474.80008	-723.01007	569.95782	-299.84695	-800.07678	613.62305	-297.95679	-808.78143	134.53462	-348.36469	-892.12769	161.80325	-384.67084
320	1.59	-620.88617	73.362167	-536.15503	-649.11572	83.835579	-493.68518	-488.04288	530.56915	-507.64133	-566.53638	518.43677	-453.84888	-425.04388	1022.0835	-549.5509	-738.95483	1086.1	-476.66748	-726.21429	565.7674	-308.81006	-802.9519	609.37994	-308.09061	-808.74396	130.6631	-366.91638	-891.50049	158.99599	-405.12744
321	1.595	-620.84534	73.284508	-536.34113	-649.79663	84.031631	-492.66156	-488.30185	530.59821	-507.10522	-567.20844	518.43445	-454.11057	-425.4697	1022.8	-547.33972	-740.26202	1084.2206	-478.48331	-728.93103	561.63135	-317.86972	-805.90991	604.98761	-318.37347	-808.44214	127.44874	-384.47144	-890.43506	156.12029	-424.99225
322	1.6	-620.73419	73.270027	-536.58173	-649.83417	84.046799	-492.79959	-488.49423	530.51379	-506.67178	-567.75739	518.44897	-454.2562	-426.00763	1023.4391	-545.21014	-742.44037	1082.7449	-480.26202	-731.48907	557.87354	-327.09619	-808.54877	601.06104	-328.56897	-808.0351	124.43459	-402.26923	-889.10504	153.70862	-444.47388
323	1.605	-620.59955	73.287811	-536.75476	-649.64062	84.042244	-493.16382	-488.54788	530.54047	-506.18887	-568.24219	518.43433	-454.29977	-426.46555	1024.0336	-543.276	-743.71075	1081.1641	-482.05249	-733.17944	554.51233	-334.2883	-810.92944	597.29639	-338.90689	-807.31378	122.00987	-419.92667	-887.46906	151.62024	-463.47507
324	1.61	-620.41693	73.149521	-536.95721	-649.51984	84.021973	-493.58099	-488.65259	530.61938	-505.5412	-568.65509	518.36853	-454.28207	-427.0578	1024.525	-541.32288	-745.21124	1079.8364	-483.76566	-735.06604	550.927	-343.30121	-813.03839	593.88538	-349.27975	-806.58557	119.83064	-437.18933	-885.78522	149.8786	-482.07846
325	1.615	-620.30133	73.111267	-537.07098	-649.56622	84.086555	-493.44949	-488.96674	530.60718	-505.01608	-569.03802	518.34949	-454.14832	-427.6424	1025.0228	-539.54181	-746.724	1078.6281	-485.44559	-736.9292	547.83734	-353.05066	-814.87903	590.61615	-359.58398	-805.25293	117.44698	-453.71304	-883.95404	148.36703	-500.17743
326	1.62	-620.2384	73.100349	-537.12073	-649.55432	84.100319	-493.55203	-488.98929	530.6394	-504.53668	-569.37555	518.33307	-454.01361	-428.6142	1025.4055	-537.64612	-748.07233	1077.422	-487.25198	-738.4408	545.02356	-362.54526	-816.49579	587.53387	-369.68402	-804.10059	115.63289	-470.16873	-881.87341	147.12393	-517.89526
